<?xml version="1.0" encoding="UTF-8"?>
<svg width="52px" height="52px" viewBox="0 0 52 52" version="1.1" xmlns="http://www.w3.org/2000/svg" xmlns:xlink="http://www.w3.org/1999/xlink">
    <!-- Generator: Sketch 56.3 (81716) - https://sketch.com -->
    <title>sociallinkedin</title>
    <desc>Created with Sketch.</desc>
    <g id="g-linkedin-icon" stroke="none" stroke-width="1" fill="none" fill-rule="evenodd">
        <g id="g2-linkedin-icon" transform="translate(-1109.000000, -925.000000)" fill="#FFFFFF" fill-rule="nonzero">
            <g id="g3linkedin-icon" transform="translate(1109.000000, 925.000000)">
                <path d="M26,0 C11.6427918,0 0,11.6427918 0,26 C0,40.3572082 11.6427918,52 26,52 C40.3572082,52 52,40.3572082 52,26 C52,11.6427918 40.3572082,0 26,0 Z M18.4447021,39.3046875 L12.1125183,39.3046875 L12.1125183,20.2541809 L18.4447021,20.2541809 L18.4447021,39.3046875 Z M15.2788086,17.652832 L15.2375488,17.652832 C13.1126709,17.652832 11.7384033,16.190094 11.7384033,14.361969 C11.7384033,12.4925842 13.1547242,11.0703125 15.3208618,11.0703125 C17.4869996,11.0703125 18.8200074,12.4925842 18.8612671,14.361969 C18.8612671,16.190094 17.4869996,17.652832 15.2788086,17.652832 Z M41.2772217,39.3046875 L34.9458313,39.3046875 L34.9458313,29.1131287 C34.9458313,26.5518494 34.0289918,24.8050537 31.7378845,24.8050537 C29.9887085,24.8050537 28.9468994,25.9833375 28.4890747,27.120758 C28.3216553,27.5278015 28.2807922,28.0967102 28.2807922,28.6660156 L28.2807922,39.3046875 L21.9490051,39.3046875 C21.9490051,39.3046875 22.0319214,22.0414429 21.9490051,20.2541809 L28.2807922,20.2541809 L28.2807922,22.9515381 C29.1222535,21.6534424 30.6278381,19.8070679 33.9873352,19.8070679 C38.1533813,19.8070679 41.2772217,22.5298156 41.2772217,28.3811645 L41.2772217,39.3046875 Z" id="shape-lindedin"></path>
            </g>
        </g>
    </g>
</svg>