<?xml version="1.0" encoding="UTF-8"?>
<svg width="52px" height="52px" viewBox="0 0 52 52" version="1.1" xmlns="http://www.w3.org/2000/svg" xmlns:xlink="http://www.w3.org/1999/xlink">
    <!-- Generator: Sketch 56.3 (81716) - https://sketch.com -->
    <title>socialtwitter</title>
    <desc>Created with Sketch.</desc>
    <g id="Landing-|-Home" stroke="none" stroke-width="1" fill="none" fill-rule="evenodd">
        <g id="Desktop-HD-|-Dark-Mode" transform="translate(-1273.000000, -926.000000)" fill="#FFFFFF" fill-rule="nonzero">
            <g id="twitter" transform="translate(1273.000000, 926.000000)">
                <path d="M26,0 C11.6427918,0 0,11.6427918 0,26 C0,40.3572082 11.6427918,52 26,52 C40.3572082,52 52,40.3572082 52,26 C52,11.6427918 40.3572082,0 26,0 Z M37.8713074,20.2720336 C37.8828125,20.5279236 37.8883668,20.7850037 37.8883668,21.0432739 C37.8883668,28.9290467 31.8858643,38.0224609 20.908783,38.0228576 L20.9091797,38.0228576 L20.908783,38.0228576 C17.5385742,38.0228576 14.4024353,37.0350037 11.7614136,35.3421631 C12.2283631,35.3973084 12.7036438,35.4246826 13.1848754,35.4246826 C15.981018,35.4246826 18.5541992,34.4709473 20.5969543,32.8701477 C17.9844971,32.8217469 15.7818604,31.0963746 15.0217285,28.7251281 C15.3855285,28.7949524 15.7596436,28.8330383 16.1432801,28.8330383 C16.6879883,28.8330383 17.2156372,28.7596436 17.717102,28.6227722 C14.9864197,28.0760803 12.9293824,25.6627808 12.9293824,22.7730102 C12.9293824,22.7460328 12.9293824,22.7218322 12.9301758,22.6968383 C13.7343445,23.1439514 14.6539612,23.4129334 15.6330871,23.4430847 C14.0307007,22.3739014 12.9773865,20.5461731 12.9773865,18.4756469 C12.9773865,17.3822632 13.2729492,16.3579102 13.7855225,15.4759826 C16.7284546,19.0870056 21.1265869,21.4618225 26.0864868,21.7113648 C25.9841309,21.2741699 25.931366,20.8187256 25.931366,20.3505859 C25.931366,17.0561523 28.604126,14.3833924 31.8997498,14.3833924 C33.6163941,14.3833924 35.166809,15.1090088 36.2558289,16.269043 C37.6154175,16.0008545 38.8920898,15.5041504 40.0453797,14.8205871 C39.5990601,16.213501 38.6532593,17.3822632 37.4210205,18.1213684 C38.6282654,17.9769592 39.7787781,17.6567993 40.8479614,17.1815186 C40.0493469,18.3784485 39.036499,19.4297791 37.8713074,20.2720336 Z" id="Shape"></path>
            </g>
        </g>
    </g>
</svg>