<?xml version="1.0" encoding="UTF-8"?>
<svg width="52px" height="51px" viewBox="0 0 52 51" version="1.1" xmlns="http://www.w3.org/2000/svg" xmlns:xlink="http://www.w3.org/1999/xlink">
    <!-- Generator: Sketch 56.3 (81716) - https://sketch.com -->
    <title>socialgithub</title>
    <desc>Created with Sketch.</desc>
    <g id="g-github-icon" stroke="none" stroke-width="1" fill="none" fill-rule="evenodd">
        <g id="g2-github-icon" transform="translate(-1191.000000, -926.000000)" fill="#FFFFFF" fill-rule="nonzero">
            <g id="g3-github-icon" transform="translate(1191.000000, 926.000000)">
                <path d="M25.99675,4.97379915e-14 C11.6415,4.97379915e-14 0,11.687 0,26.104 C0,37.635 7.449,47.4175 17.784,50.87225 C19.084,51.11275 19.5585,50.30675 19.5585,49.6145 C19.5585,48.99375 19.53575,47.3525 19.52275,45.175 C12.2915,46.75125 10.764,41.67475 10.764,41.67475 C9.58425,38.65875 7.878,37.856 7.878,37.856 C5.51525,36.2375 8.0535,36.27 8.0535,36.27 C10.66325,36.45525 12.03475,38.961 12.03475,38.961 C14.35525,42.94875 18.122,41.79825 19.604,41.12875 C19.838,39.442 20.51075,38.2915 21.255,37.63825 C15.483,36.9785 9.412,34.73925 9.412,24.739 C9.412,21.88875 10.426,19.5585 12.09,17.732 C11.82025,17.07225 10.92975,14.417 12.3435,10.82575 C12.3435,10.82575 14.5275,10.12375 19.4935,13.5005 C21.567,12.922 23.79,12.63275 26.00325,12.623 C28.21,12.636 30.43625,12.922 32.513,13.50375 C37.47575,10.127 39.6565,10.829 39.6565,10.829 C41.0735,14.4235 40.183,17.0755 39.9165,17.73525 C41.58375,19.56175 42.588,21.892 42.588,24.74225 C42.588,34.7685 36.5105,36.97525 30.719,37.622 C31.65175,38.428 32.48375,40.0205 32.48375,42.45475 C32.48375,45.94525 32.45125,48.75975 32.45125,49.6145 C32.45125,50.31325 32.91925,51.12575 34.23875,50.869 C44.5575,47.411 52,37.63175 52,26.104 C52,11.687 40.3585,4.97379915e-14 25.99675,4.97379915e-14 Z" id="Path"></path>
            </g>
        </g>
    </g>
</svg>